<?xml version="1.0" encoding="UTF-8"?>
<svg width="556px" height="726px" viewBox="0 0 556 726" version="1.1" xmlns="http://www.w3.org/2000/svg" xmlns:xlink="http://www.w3.org/1999/xlink">
    <title>frame_1</title>
    <g id="frame_1" stroke="none" stroke-width="1" fill="none" fill-rule="evenodd">
        <g id="top-left" transform="translate(0.000000, 0.000000)" stroke="#D1A138">
            <rect id="Rectangle" stroke-width="2" x="17.2789417" y="23.8501729" width="7.9878721" height="8.00391705"></rect>
            <polygon id="Rectangle-Copy" stroke-width="2" transform="translate(17.278942, 316.993635) rotate(-315.000000) translate(-17.278942, -316.993635) " points="13.2769832 312.991676 21.2728777 312.999699 21.2809002 320.995593 13.2850056 320.987571"></polygon>
            <rect id="Rectangle" stroke-width="2" x="25.2668138" y="15.8462559" width="7.9878721" height="8.00391705"></rect>
            <path d="M200.923672,2.84356256e-14 L50.9226846,2.84356256e-14 C47.5050336,30.5278391 29.070153,45.0571422 0.301939309,48.5778768 L0.301939309,330" id="Path" stroke-width="2"></path>
            <path d="M65.8999448,2.84356256e-14 C61.4507213,39.610532 37.4515168,58.4626173 5.6757245e-14,63.0308467" id="Path" stroke-width="2"></path>
            <path d="M57.9120727,2.84356256e-14 C54.002149,35.2093618 32.911939,51.966771 5.6757245e-14,56.0274193" id="Path" stroke-width="3" stroke-linecap="round" stroke-linejoin="round" stroke-dasharray="0,5"></path>
            <line x1="48.7311881" y1="41.3587415" x2="154.570493" y2="90.3827334" id="Line" stroke-width="2"></line>
            <line x1="53.2243661" y1="35.8560485" x2="181.03032" y2="47.8619241" id="Line-Copy" stroke-width="2"></line>
            <line x1="58.2167862" y1="27.8521315" x2="104.147051" y2="15.8462559" id="Line-Copy" stroke-width="2"></line>
            <line x1="60.2137542" y1="21.8491937" x2="74.1925304" y2="15.8462559" id="Line-Copy" stroke-width="2"></line>
            <line x1="44.737252" y1="45.3607" x2="129.608393" y2="130.402319" id="Line-2" stroke-width="2"></line>
            <line x1="40.244074" y1="48.8624137" x2="100.652357" y2="176.424842" id="Line-3" stroke-width="2"></line>
            <line x1="35.2516539" y1="51.8638826" x2="53.2243661" y2="252.962298" id="Line-3" stroke-width="2"></line>
            <line x1="28.2622658" y1="55.8658411" x2="17.2789417" y2="96.885916" id="Line-3" stroke-width="2"></line>
            <line x1="31.7569599" y1="55.3655963" x2="17.2789417" y2="228.950547" id="Line-3" stroke-width="3" stroke-linecap="round" stroke-linejoin="round" stroke-dasharray="0,5"></line>
            <line x1="37.7478639" y1="51.3636378" x2="80.6826765" y2="208.44051" id="Line-3" stroke-width="3" stroke-linecap="round" stroke-linejoin="round" stroke-dasharray="0,5"></line>
            <line x1="43.738768" y1="48.3621689" x2="115.629617" y2="151.412601" id="Line-3" stroke-width="3" stroke-linecap="round" stroke-linejoin="round" stroke-dasharray="0,5"></line>
            <line x1="47.7327041" y1="44.3602104" x2="140.591717" y2="109.392036" id="Line-3" stroke-width="3" stroke-linecap="round" stroke-linejoin="round" stroke-dasharray="0,5"></line>
            <line x1="51.7266401" y1="38.3572726" x2="166.552302" y2="70.3729408" id="Line-3" stroke-width="3" stroke-linecap="round" stroke-linejoin="round" stroke-dasharray="0,5"></line>
            <line x1="56.7190602" y1="31.3538452" x2="200.500758" y2="21.3489489" id="Line-3" stroke-width="3" stroke-linecap="round" stroke-linejoin="round" stroke-dasharray="0,5"></line>
            <line x1="21.2728777" y1="58.86731" x2="17.2789417" y2="71.8736752" id="Line-3" stroke-width="2"></line>
            <path d="M17.2789417,44.9053685 L17.2789417,23.8501729 L25.2668138,23.8501729 L25.2668138,15.8462559 L47.2902458,15.8462559 M62.7573448,15.8462559 L200.923672,15.8462559 L17.2789417,310.524669 L17.2789417,59.9233991" id="Shape" stroke-width="2" stroke-linejoin="bevel"></path>
            <ellipse id="Oval" fill="#D1A138" cx="7.29410156" cy="38.8575174" rx="1.99696803" ry="2.00097926"></ellipse>
            <ellipse id="Oval" fill="#D1A138" cx="41.242558" cy="6.84184922" rx="1.99696803" ry="2.00097926"></ellipse>
        </g>
        <g id="top-right" transform="translate(455.500000, 164.500000) scale(-1, 1) translate(-455.500000, -164.500000) translate(355.000000, 0.000000)" stroke="#D1A138">
            <rect id="Rectangle" stroke-width="2" x="17.2814773" y="24" width="7.98776186" height="8"></rect>
            <polygon id="Rectangle-Copy" stroke-width="2" transform="translate(16.976768, 317.161499) rotate(-315.000000) translate(-16.976768, -317.161499) " points="12.9767681 313.161499 20.970649 313.167618 20.9767681 321.161499 12.9828871 321.15538"></polygon>
            <rect id="Rectangle" stroke-width="2" x="25.2692392" y="16" width="7.98776186" height="8"></rect>
            <path d="M201,0 L50.9247559,0.161499123 C47.5071521,30.6743981 29.0725259,45.1965907 0.304709263,48.7156023 L-1.13512923e-13,329" id="Path" stroke-width="2"></path>
            <path d="M65.9018094,0.161499123 C61.4526473,39.7526461 37.453774,58.5955053 0.00277412054,63.1614991" id="Path" stroke-width="2"></path>
            <path d="M57.9140476,0.161499123 C54.0041778,35.3536298 32.9142589,52.102838 0.00277412054,56.1614991" id="Path" stroke-width="3" stroke-linecap="round" stroke-linejoin="round" stroke-dasharray="0,5"></path>
            <line x1="48.7332896" y1="41.5" x2="154.571134" y2="90.5" id="Line" stroke-width="2"></line>
            <line x1="53.2264057" y1="36" x2="181.030595" y2="48" id="Line-Copy" stroke-width="2"></line>
            <line x1="58.2187568" y1="28" x2="104.148388" y2="16" id="Line-Copy" stroke-width="2"></line>
            <line x1="60.2156973" y1="22" x2="74.1942805" y2="16" id="Line-Copy" stroke-width="2"></line>
            <line x1="44.7394087" y1="45.5" x2="129.609378" y2="130.5" id="Line-2" stroke-width="2"></line>
            <line x1="40.2462927" y1="49" x2="100.653742" y2="176.5" id="Line-3" stroke-width="2"></line>
            <line x1="35.2539415" y1="52" x2="53.2264057" y2="253" id="Line-3" stroke-width="2"></line>
            <line x1="28.2646499" y1="56" x2="17.2814773" y2="97" id="Line-3" stroke-width="2"></line>
            <line x1="31.7592957" y1="55.5" x2="17.2814773" y2="229" id="Line-3" stroke-width="3" stroke-linecap="round" stroke-linejoin="round" stroke-dasharray="0,5"></line>
            <line x1="37.7501171" y1="51.5" x2="80.6843371" y2="208.5" id="Line-3" stroke-width="3" stroke-linecap="round" stroke-linejoin="round" stroke-dasharray="0,5"></line>
            <line x1="43.7409385" y1="48.5" x2="115.630795" y2="151.5" id="Line-3" stroke-width="3" stroke-linecap="round" stroke-linejoin="round" stroke-dasharray="0,5"></line>
            <line x1="47.7348194" y1="44.5" x2="140.592551" y2="109.5" id="Line-3" stroke-width="3" stroke-linecap="round" stroke-linejoin="round" stroke-dasharray="0,5"></line>
            <line x1="51.7287003" y1="38.5" x2="166.552777" y2="70.5" id="Line-3" stroke-width="3" stroke-linecap="round" stroke-linejoin="round" stroke-dasharray="0,5"></line>
            <line x1="56.7210515" y1="31.5" x2="200.500765" y2="21.5" id="Line-3" stroke-width="3" stroke-linecap="round" stroke-linejoin="round" stroke-dasharray="0,5"></line>
            <line x1="21.2753583" y1="59" x2="17.2814773" y2="72" id="Line-3" stroke-width="2"></line>
            <path d="M17.2814773,45.0448913 L17.2814773,24 L25.2692392,24 L25.2692392,16 L47.2923672,16 M62.7592527,16 L200.923673,16 L17.2814773,310.5342 L17.2814773,60.0555722" id="Shape" stroke-width="2" stroke-linejoin="bevel"></path>
            <ellipse id="Oval" fill="#D1A138" cx="7.29677501" cy="39" rx="1.99694046" ry="2"></ellipse>
            <ellipse id="Oval" fill="#D1A138" cx="41.2447629" cy="7" rx="1.99694046" ry="2"></ellipse>
        </g>
        <g id="bottom-left" transform="translate(112.000000, 561.500000) scale(1, -1) translate(-112.000000, -561.500000) translate(0.000000, 397.000000)" stroke="#D1A138">
            <rect id="Rectangle" stroke-width="2" x="17.3049615" y="23.8633903" width="7.99990077" height="8.00835268"></rect>
            <polygon id="Rectangle-Copy" stroke-width="2" transform="translate(17.304961, 317.169307) rotate(-315.000000) translate(-17.304961, -317.169307) " points="13.3007851 313.165131 21.3049119 313.169357 21.3091378 321.173484 13.3050111 321.169258"></polygon>
            <rect id="Rectangle" stroke-width="2" x="25.3048622" y="15.8550376" width="7.99990077" height="8.00835268"></rect>
            <path d="M224,0 L50.6969734,0 C47.2741759,30.5447571 28.8115348,45.0821121 0,48.6047978 L0.30239399,329" id="Path" stroke-width="2"></path>
            <path d="M65.9991814,2.84513841e-14 C61.5432579,39.6324835 37.5079138,58.4950163 5.68427138e-14,63.0657774" id="Path" stroke-width="2"></path>
            <path d="M57.9992806,2.84513841e-14 C54.0834691,35.2288742 32.9615,51.99557 5.68427138e-14,56.0584688" id="Path" stroke-width="3" stroke-linecap="round" stroke-linejoin="round" stroke-dasharray="0,5"></path>
            <line x1="48.8045708" y1="41.3816618" x2="154.803256" y2="90.432822" id="Line" stroke-width="2"></line>
            <line x1="53.304515" y1="35.8759193" x2="181.302927" y2="47.8884483" id="Line-Copy" stroke-width="2"></line>
            <line x1="58.3044529" y1="27.8675666" x2="104.303882" y2="15.8550376" id="Line-Copy" stroke-width="2"></line>
            <line x1="60.3044281" y1="21.8613021" x2="74.3042545" y2="15.8550376" id="Line-Copy" stroke-width="2"></line>
            <line x1="44.8046204" y1="45.3858381" x2="129.803566" y2="130.474585" id="Line-2" stroke-width="2"></line>
            <line x1="40.3046762" y1="48.8894924" x2="100.803926" y2="176.522613" id="Line-3" stroke-width="2"></line>
            <line x1="35.3047382" y1="51.8926247" x2="53.304515" y2="253.102486" id="Line-3" stroke-width="2"></line>
            <line x1="28.304825" y1="55.896801" x2="17.3049615" y2="96.9396085" id="Line-3" stroke-width="2"></line>
            <line x1="31.8047816" y1="55.396279" x2="17.3049615" y2="229.077428" id="Line-3" stroke-width="3" stroke-linecap="round" stroke-linejoin="round" stroke-dasharray="0,5"></line>
            <line x1="37.8047072" y1="51.3921026" x2="80.8041739" y2="208.556024" id="Line-3" stroke-width="3" stroke-linecap="round" stroke-linejoin="round" stroke-dasharray="0,5"></line>
            <line x1="43.8046328" y1="48.3889704" x2="115.80374" y2="151.496511" id="Line-3" stroke-width="3" stroke-linecap="round" stroke-linejoin="round" stroke-dasharray="0,5"></line>
            <line x1="47.8045832" y1="44.384794" x2="140.80343" y2="109.45266" id="Line-3" stroke-width="3" stroke-linecap="round" stroke-linejoin="round" stroke-dasharray="0,5"></line>
            <line x1="51.8045336" y1="38.3785295" x2="166.803107" y2="70.4119403" id="Line-3" stroke-width="3" stroke-linecap="round" stroke-linejoin="round" stroke-dasharray="0,5"></line>
            <line x1="56.8044715" y1="31.3712209" x2="200.802685" y2="21.3607801" id="Line-3" stroke-width="3" stroke-linecap="round" stroke-linejoin="round" stroke-dasharray="0,5"></line>
            <line x1="21.3049119" y1="58.8999333" x2="17.3049615" y2="71.9135064" id="Line-3" stroke-width="2"></line>
            <path d="M17.3049615,44.9302543 L17.3049615,23.8633903 L25.3048622,23.8633903 L25.3048622,15.8550376 L47.3614586,15.8550376 M62.851849,15.8550376 L201.226237,15.8550376 L17.3049615,310.696756 L17.3049615,59.9566076" id="Shape" stroke-width="2" stroke-linejoin="bevel"></path>
            <ellipse id="Oval" fill="#D1A138" cx="7.3050855" cy="38.8790516" rx="1.99997519" ry="2.00208817"></ellipse>
            <ellipse id="Oval" fill="#D1A138" cx="41.3046638" cy="6.84564085" rx="1.99997519" ry="2.00208817"></ellipse>
        </g>
        <g id="bottom-right" transform="translate(444.000000, 561.000000) scale(-1, -1) translate(-444.000000, -561.000000) translate(332.000000, 396.000000)" stroke="#D1A138">
            <rect id="Rectangle" stroke-width="2" x="17.2816317" y="23.8501729" width="7.98911568" height="8.00391705"></rect>
            <polygon id="Rectangle-Copy" stroke-width="2" transform="translate(17.281632, 316.993635) rotate(-315.000000) translate(-17.281632, -316.993635) " points="13.2796732 312.991676 21.2761896 312.999077 21.2835903 320.995593 13.2870739 320.988193"></polygon>
            <rect id="Rectangle" stroke-width="2" x="25.2707474" y="15.8462559" width="7.98911568" height="8.00391705"></rect>
            <path d="M224,2.84356256e-14 L50.9306125,2.84356256e-14 C47.5124294,30.5278391 29.0746787,45.0571422 0.301986316,48.5778768 L0.301986316,330" id="Path" stroke-width="2"></path>
            <path d="M65.9102044,2.84356256e-14 C61.4602882,39.610532 37.4573474,58.4626173 5.67660811e-14,63.0308467" id="Path" stroke-width="2"></path>
            <path d="M57.9210887,2.84356256e-14 C54.0105563,35.2093618 32.9170629,51.966771 5.67660811e-14,56.0274193" id="Path" stroke-width="3" stroke-linecap="round" stroke-linejoin="round" stroke-dasharray="0,5"></path>
            <line x1="48.7387747" y1="41.3587415" x2="154.594558" y2="90.3827334" id="Line" stroke-width="2"></line>
            <line x1="53.2326523" y1="35.8560485" x2="181.058503" y2="47.8619241" id="Line-Copy" stroke-width="2"></line>
            <line x1="58.2258496" y1="27.8521315" x2="104.163265" y2="15.8462559" id="Line-Copy" stroke-width="2"></line>
            <line x1="60.2231285" y1="21.8491937" x2="74.204081" y2="15.8462559" id="Line-Copy" stroke-width="2"></line>
            <line x1="44.7442169" y1="45.3607" x2="129.628571" y2="130.402319" id="Line-2" stroke-width="2"></line>
            <line x1="40.2503393" y1="48.8624137" x2="100.668027" y2="176.424842" id="Line-3" stroke-width="2"></line>
            <line x1="35.257142" y1="51.8638826" x2="53.2326523" y2="252.962298" id="Line-3" stroke-width="2"></line>
            <line x1="28.2666658" y1="55.8658411" x2="17.2816317" y2="96.885916" id="Line-3" stroke-width="2"></line>
            <line x1="31.7619039" y1="55.3655963" x2="17.2816317" y2="228.950547" id="Line-3" stroke-width="3" stroke-linecap="round" stroke-linejoin="round" stroke-dasharray="0,5"></line>
            <line x1="37.7537407" y1="51.3636378" x2="80.6952375" y2="208.44051" id="Line-3" stroke-width="3" stroke-linecap="round" stroke-linejoin="round" stroke-dasharray="0,5"></line>
            <line x1="43.7455774" y1="48.3621689" x2="115.647619" y2="151.412601" id="Line-3" stroke-width="3" stroke-linecap="round" stroke-linejoin="round" stroke-dasharray="0,5"></line>
            <line x1="47.7401353" y1="44.3602104" x2="140.613605" y2="109.392036" id="Line-3" stroke-width="3" stroke-linecap="round" stroke-linejoin="round" stroke-dasharray="0,5"></line>
            <line x1="51.7346931" y1="38.3572726" x2="166.578231" y2="70.3729408" id="Line-3" stroke-width="3" stroke-linecap="round" stroke-linejoin="round" stroke-dasharray="0,5"></line>
            <line x1="56.7278904" y1="31.3538452" x2="200.531973" y2="21.3489489" id="Line-3" stroke-width="3" stroke-linecap="round" stroke-linejoin="round" stroke-dasharray="0,5"></line>
            <line x1="21.2761896" y1="58.86731" x2="17.2816317" y2="71.8736752" id="Line-3" stroke-width="2"></line>
            <path d="M16.9768708,45.0669467 L16.9768708,24.0117511 L24.9659865,24.0117511 L24.9659865,16.0078341 L46.9928472,16.0078341 M62.4623542,16.0078341 L200.650192,16.0078341 L16.9768708,310.686247 L16.9768708,60.0849773" id="Shape" stroke-width="2" stroke-linejoin="bevel"></path>
            <ellipse id="Oval" fill="#D1A138" cx="7.29523713" cy="38.8575174" rx="1.99727892" ry="2.00097926"></ellipse>
            <ellipse id="Oval" fill="#D1A138" cx="41.2489788" cy="6.84184922" rx="1.99727892" ry="2.00097926"></ellipse>
        </g>
        <g id="left" transform="translate(11.648322, 322.000000)" stroke="#D1A138" stroke-width="2">
            <polygon id="Rectangle-Copy-3" transform="translate(5.656854, 41.370918) rotate(-315.000000) translate(-5.656854, -41.370918) " points="1.65685425 37.3709176 9.65685425 37.3709176 9.65685425 45.3709176 1.65685425 45.3709176"></polygon>
            <line x1="5.35167814" y1="0" x2="5.35167814" y2="36" id="Line-4-Copy"></line>
            <line x1="5.35167814" y1="47" x2="5.35167814" y2="83" id="Line-4-Copy-2"></line>
        </g>
        <line x1="556" y1="246" x2="556" y2="504" id="Line-4-Copy" stroke="#D1A138" stroke-width="2"></line>
        <g id="right" transform="translate(533.343146, 323.000000)" stroke="#D1A138" stroke-width="2">
            <line x1="5.65685425" y1="-2.30610487e-14" x2="5.65685425" y2="35" id="Line-4-Copy"></line>
            <line x1="5.65685425" y1="46" x2="5.65685425" y2="81" id="Line-4-Copy-3"></line>
            <polygon id="Rectangle-Copy-4" transform="translate(5.656854, 40.549105) rotate(-315.000000) translate(-5.656854, -40.549105) " points="1.65685425 36.5491054 9.65685425 36.5491054 9.65685425 44.5491054 1.65685425 44.5491054"></polygon>
        </g>
        <g id="top" transform="translate(200.000000, -0.500000)" stroke="#D1A138" stroke-width="2">
            <line x1="0" y1="0.5" x2="155" y2="0.5" id="Line-4-Copy"></line>
            <line x1="0" y1="16.5" x2="155" y2="16.5" id="Line-4-Copy-4"></line>
        </g>
        <g id="bottom" transform="translate(200.000000, 709.000000)" stroke="#D1A138" stroke-width="2">
            <line x1="0" y1="1" x2="156" y2="1" id="Line-4-Copy"></line>
            <line x1="1" y1="17" x2="155" y2="17" id="Line-4-Copy"></line>
        </g>
        <line x1="0" y1="255" x2="-1.11022302e-16" y2="464" id="Line-4-Copy" stroke="#D1A138" stroke-width="2"></line>
        <g id="Ribbon" transform="translate(254.000000, 16.000000)">
            <polygon id="Path-2-Copy" stroke="#D1A138" stroke-width="2" points="3.5552252e-15 0 3.5552252e-15 58 24.4833871 44.5 48 58 47.5761441 0.161499123"></polygon>
            <g id="noun_Dog_1998025" transform="translate(10.007069, 9.000000)" fill="#D1A138" fill-rule="nonzero">
                <path d="M26.8565296,4.22712238 C26.521591,4.13781698 25.8212648,3.89966924 25.7908159,3.69128997 C25.7603669,3.45314223 25.66902,3.21499449 25.5472242,3.03638368 C25.7299179,2.4707828 25.7299179,2.05402426 25.7299179,1.99448732 L25.699469,1.25027563 L24.9686939,1.42888644 C24.9382449,1.42888644 24.2683677,1.60749724 23.5071436,2.05402426 C23.6593884,0.654906284 23.4157967,0.35722161 23.2940009,0.23814774 C23.141756,0.0893054024 22.9590623,0 22.7459195,0 C22.0455934,0 20.3404514,1.60749724 19.6705742,2.73869901 C19.000697,3.89966924 19.1833908,4.67364939 19.4574315,5.12017641 C19.4574315,5.12017641 19.4574315,5.12017641 19.4574315,5.14994487 C19.2747377,5.44762955 19.1224929,5.74531422 18.9397991,6.07276736 C18.5439625,6.84674752 18.0567791,7.71003308 17.2346571,8.6030871 C16.6256778,9.25799338 10.9621706,10.1510474 10.1095996,10.0319735 C9.28747762,9.91289967 8.40445768,10.0022051 7.61278462,10.3296582 L7.58233566,10.2998897 C7.58233566,10.2998897 7.61278462,10.2998897 7.61278462,10.2701213 C7.2169481,10.4487321 5.14641857,10.3891951 4.41564345,9.73428886 C4.26339863,9.58544653 4.11115381,9.37706725 4.26339863,8.99007718 C4.38519449,8.6030871 4.59833723,8.39470783 4.93327583,8.30540243 C5.5422551,8.15656009 6.48617297,8.45424476 7.2169481,9.04961411 L7.76502944,9.49614112 L8.130417,8.90077178 C8.89164109,7.73980154 8.61760042,6.45975744 7.49098877,5.62624035 C5.8771937,4.46527012 3.01499112,4.61411246 1.00535953,6.87651599 C-0.303945904,8.33517089 -0.334394868,10.6571114 0.914012639,12.2646086 C1.55344087,13.0683572 2.55825667,13.7232635 3.83711314,13.7232635 C4.08070485,13.7232635 4.32429656,13.693495 4.56788827,13.6637266 C4.47654138,14.1400221 4.44609241,14.5865491 4.5374393,15.0628445 C5.02462272,17.6527012 3.16723594,19.23043 3.10633802,19.2899669 L2.92364423,19.4388093 L2.22331807,27 L5.78584681,27 L6.42527504,27 L9.31792658,27 L9.95735482,24.4696803 L8.76984524,24.0826902 L9.25702866,22.3858875 C10.7490279,21.7607497 11.6624968,20.5104741 12.5759657,19.1708931 C12.6977615,18.9922822 12.8195574,18.8434399 12.9413532,18.6648291 C13.5807815,18.783903 14.1897608,18.8732084 14.829189,18.9029768 C14.5551483,19.6471885 14.3115566,20.0937155 14.3115566,20.123484 L14.2506587,20.2425579 L14.1288628,27 L17.6609426,27 L18.3612688,27 L21.2843693,27 L21.467063,24.4399118 L20.2491045,24.0529217 L21.5584099,17.4740904 C22.6545726,16.5512679 23.2940009,15.2414553 23.6593884,14.2293275 C24.055225,13.4255788 24.3597146,10.4487321 24.0856739,8.4244763 C24.7555511,8.5137817 25.4254283,8.45424476 26.0648565,8.18632856 C27.0392234,7.73980154 27.6786516,6.81697905 27.9831413,5.38809261 C28.196284,4.64388093 27.4350599,4.40573319 26.8565296,4.22712238 Z M1.91882844,11.5203969 C1.15760435,10.5380375 0.914012639,8.84123484 1.97972636,7.65049614 C3.68486832,5.71554576 5.84674474,5.86438809 6.82111157,6.57883131 C7.09515224,6.78721058 7.46053981,7.14443219 7.39964188,7.65049614 C6.57751986,7.17420066 5.57270406,6.90628445 4.68968412,7.14443219 C4.2025007,7.29327453 3.53262351,7.65049614 3.19768491,8.57331863 C2.89319527,9.43660419 3.13678698,10.2105843 3.8675621,10.7464168 C4.38519449,11.1334068 5.14641857,11.3417861 5.90764266,11.46086 C5.8771937,11.4906284 5.8771937,11.4906284 5.84674474,11.5203969 C5.63360199,11.7287762 5.45090821,11.9371555 5.29866339,12.1753032 C3.38037869,13.0385888 2.284216,11.9966924 1.91882844,11.5203969 Z M8.58715146,21.3439912 L8.28266182,21.4332966 L7.30829499,24.7971334 L8.55670249,25.213892 L8.40445768,25.7497244 L6.76021364,25.7497244 L7.09515224,24.4696803 L6.18168334,24.0529217 L6.76021364,21.3439912 C8.40445768,19.9151047 9.89645689,20.8974642 8.58715146,21.3439912 Z M20.1882066,25.7794928 L18.4830646,25.7794928 L18.5744115,24.4696803 L17.6609426,24.0826902 L18.0872281,21.2844542 C19.853268,20.629548 18.8789011,24.8566703 18.8789011,24.8566703 L20.2186555,25.2734289 L20.1882066,25.7794928 Z M25.6385711,7.08489526 C24.5728573,7.56119074 23.0199602,6.90628445 22.1673892,6.45975744 L21.5888589,7.5016538 C21.9846954,7.71003308 22.4109809,7.91841235 22.8981643,8.09702315 C23.2635519,9.8831312 22.9286133,13.2171996 22.6545726,13.693495 L22.5936747,13.7828004 C22.4414299,14.2293275 22.1978382,14.7353914 21.9237975,15.2116869 C21.9542465,14.8842337 21.9846954,14.5567806 21.9846954,14.2293275 L20.7667369,14.2293275 C20.7362879,17.5931643 18.8180032,19.1411246 17.1433102,20.5104741 L16.9606164,20.6593164 L16.3211882,24.8269019 L17.295555,25.2436604 L17.2651061,25.8092613 L15.4077193,25.8092613 L15.4990662,20.5402426 C15.7426579,20.0341786 16.6561268,18.0694598 16.7474737,15.8070562 L15.5295152,15.7475193 C15.4990662,16.432194 15.3772703,17.1168688 15.2250255,17.7122381 C13.8243732,17.6824697 12.301925,17.384785 10.8403748,16.7894157 L10.3531913,16.6108049 L10.0791507,17.0275634 C8.83074317,19.0220507 7.94772322,19.7662624 5.99898955,20.4211687 L5.66405096,20.5402426 L4.75058205,24.8269019 L5.63360199,25.213892 L5.48135717,25.8092613 L3.56307247,25.8092613 L4.11115381,20.0341786 C4.68968412,19.4685777 6.30347919,17.6229327 5.78584681,14.8246968 C5.63360199,13.9911797 5.93809163,13.0683572 6.66886675,12.353914 C7.5518867,11.4906284 8.8002942,11.0441014 9.92690585,11.2227122 C10.7794768,11.3417861 17.0824123,10.5380375 18.1176771,9.40683572 C19.031146,8.4244763 19.5792273,7.44211687 19.9750638,6.63836825 C20.2186555,6.19184123 20.4013493,5.83461963 20.644941,5.53693495 L20.8885327,5.20948181 L20.644941,4.8522602 C20.5840431,4.7629548 20.5231452,4.64388093 20.4317983,4.52480706 C20.4013493,4.46527012 20.2795535,4.25689085 20.4317983,3.81036384 C20.705839,2.97684675 21.6193079,2.08379272 22.2282871,1.57772878 C22.1978382,1.87541345 22.1673892,2.23263506 22.1064913,2.58985667 L21.9846954,3.33406836 L22.7459195,3.27453142 C23.0808581,3.24476295 24.3901635,3.30429989 24.4815104,3.86990077 C24.6337553,4.82249173 25.699469,5.14994487 26.3997951,5.35832415 C26.491142,5.38809261 26.5824889,5.41786108 26.6738358,5.44762955 C26.55204,6.28114664 26.1562034,6.81697905 25.6385711,7.08489526 Z" id="Shape"></path>
            </g>
        </g>
    </g>
</svg>