<?xml version="1.0" encoding="UTF-8"?>
<svg width="47.9660913px" height="58px" viewBox="0 0 47.9660913 58" version="1.1" xmlns="http://www.w3.org/2000/svg" xmlns:xlink="http://www.w3.org/1999/xlink">
    <title>Ribbon</title>
    <g id="Ribbon" stroke="none" stroke-width="1" fill="none" fill-rule="evenodd">
        <polygon id="Path-2-Copy" stroke="#D1A138" stroke-width="2" fill="#313644" points="3.55271368e-15 0 3.55271368e-15 58 24.4660913 44.5 47.9660913 58 47.5425348 0.161499123"></polygon>
        <g id="noun_Dog_1998025" transform="translate(10.000000, 9.000000)" fill="#D1A138" fill-rule="nonzero">
            <path d="M26.8375573,4.22712238 C26.5028553,4.13781698 25.8030239,3.89966924 25.7725964,3.69128997 C25.742169,3.45314223 25.6508866,3.21499449 25.5291768,3.03638368 C25.7117415,2.4707828 25.7117415,2.05402426 25.7117415,1.99448732 L25.6813141,1.25027563 L24.9510552,1.42888644 C24.9206277,1.42888644 24.2512238,1.60749724 23.4905374,2.05402426 C23.6426747,0.654906284 23.3992551,0.35722161 23.2775453,0.23814774 C23.125408,0.0893054024 22.9428433,0 22.7298511,0 C22.0300197,0 20.3260823,1.60749724 19.6566783,2.73869901 C18.9872743,3.89966924 19.169839,4.67364939 19.4436861,5.12017641 C19.4436861,5.12017641 19.4436861,5.12017641 19.4436861,5.14994487 C19.2611214,5.44762955 19.1089841,5.74531422 18.9264194,6.07276736 C18.5308625,6.84674752 18.0440233,7.71003308 17.222482,8.6030871 C16.6139329,9.25799338 10.9544266,10.1510474 10.1024579,10.0319735 C9.28091666,9.91289967 8.39852051,10.0022051 7.60740672,10.3296582 L7.57697926,10.2998897 C7.57697926,10.2998897 7.60740672,10.2998897 7.60740672,10.2701213 C7.21184982,10.4487321 5.14278298,10.3891951 4.4125241,9.73428886 C4.26038683,9.58544653 4.10824957,9.37706725 4.26038683,8.99007718 C4.38209665,8.6030871 4.59508882,8.39470783 4.92979081,8.30540243 C5.53833988,8.15656009 6.48159094,8.45424476 7.21184982,9.04961411 L7.75954398,9.49614112 L8.12467342,8.90077178 C8.88535976,7.73980154 8.61151268,6.45975744 7.4856969,5.62624035 C5.87304187,4.46527012 3.01286124,4.61411246 1.00464931,6.87651599 C-0.303731187,8.33517089 -0.334158641,10.6571114 0.913366952,12.2646086 C1.55234347,13.0683572 2.55644944,13.7232635 3.83440249,13.7232635 C4.07782211,13.7232635 4.32124174,13.693495 4.56466137,13.6637266 C4.47337901,14.1400221 4.44295155,14.5865491 4.53423392,15.0628445 C5.02107317,17.6527012 3.16499851,19.23043 3.1041436,19.2899669 L2.92157888,19.4388093 L2.22174745,27 L5.78175951,27 L6.42073603,27 L9.31134411,27 L9.95032063,24.4696803 L8.76364995,24.0826902 L9.2504892,22.3858875 C10.7414344,21.7607497 11.654258,20.5104741 12.5670816,19.1708931 C12.6887914,18.9922822 12.8105013,18.8434399 12.9322111,18.6648291 C13.5711876,18.783903 14.1797367,18.8732084 14.8187132,18.9029768 C14.5448661,19.6471885 14.3014465,20.0937155 14.3014465,20.123484 L14.2405916,20.2425579 L14.1188818,27 L17.6484664,27 L18.3482978,27 L21.2693333,27 L21.451898,24.4399118 L20.2347999,24.0529217 L21.5431804,17.4740904 C22.6385687,16.5512679 23.2775453,15.2414553 23.6426747,14.2293275 C24.0382316,13.4255788 24.3425061,10.4487321 24.068659,8.4244763 C24.738063,8.5137817 25.407467,8.45424476 26.0464435,8.18632856 C27.020122,7.73980154 27.6590986,6.81697905 27.9633731,5.38809261 C28.1763653,4.64388093 27.4156789,4.40573319 26.8375573,4.22712238 Z M1.91747292,11.5203969 C1.15678658,10.5380375 0.913366952,8.84123484 1.97832782,7.65049614 C3.68226522,5.71554576 5.84261441,5.86438809 6.81629293,6.57883131 C7.09014001,6.78721058 7.45526945,7.14443219 7.39441454,7.65049614 C6.5728733,7.17420066 5.56876733,6.90628445 4.68637118,7.14443219 C4.19953193,7.29327453 3.53012795,7.65049614 3.19542596,8.57331863 C2.89115143,9.43660419 3.13457106,10.2105843 3.86482994,10.7464168 C4.38209665,11.1334068 5.14278298,11.3417861 5.90346932,11.46086 C5.87304187,11.4906284 5.87304187,11.4906284 5.84261441,11.5203969 C5.62962224,11.7287762 5.44705752,11.9371555 5.29492025,12.1753032 C3.37799068,13.0385888 2.28260236,11.9966924 1.91747292,11.5203969 Z M8.58108523,21.3439912 L8.27681069,21.4332966 L7.30313218,24.7971334 L8.55065777,25.213892 L8.39852051,25.7497244 L6.75543802,25.7497244 L7.09014001,24.4696803 L6.1773164,24.0529217 L6.75543802,21.3439912 C8.39852051,19.9151047 9.88946573,20.8974642 8.58108523,21.3439912 Z M20.173945,25.7794928 L18.4700076,25.7794928 L18.56129,24.4696803 L17.6484664,24.0826902 L18.0744507,21.2844542 C19.839243,20.629548 18.8655645,24.8566703 18.8655645,24.8566703 L20.2043725,25.2734289 L20.173945,25.7794928 Z M25.6204592,7.08489526 C24.5554983,7.56119074 23.0036982,6.90628445 22.1517295,6.45975744 L21.5736079,7.5016538 C21.9691648,7.71003308 22.3951491,7.91841235 22.8819884,8.09702315 C23.2471178,9.8831312 22.9124158,13.2171996 22.6385687,13.693495 L22.5777138,13.7828004 C22.4255766,14.2293275 22.1821569,14.7353914 21.9083098,15.2116869 C21.9387373,14.8842337 21.9691648,14.5567806 21.9691648,14.2293275 L20.7520666,14.2293275 C20.7216392,17.5931643 18.8047096,19.1411246 17.1311997,20.5104741 L16.9486349,20.6593164 L16.3096584,24.8269019 L17.2833369,25.2436604 L17.2529095,25.8092613 L15.3968348,25.8092613 L15.4881172,20.5402426 C15.7315368,20.0341786 16.6443604,18.0694598 16.7356428,15.8070562 L15.5185446,15.7475193 C15.4881172,16.432194 15.3664074,17.1168688 15.2142701,17.7122381 C13.8146072,17.6824697 12.2932346,17.384785 10.8327168,16.7894157 L10.3458775,16.6108049 L10.0720304,17.0275634 C8.82450485,19.0220507 7.9421087,19.7662624 5.99475168,20.4211687 L5.66004969,20.5402426 L4.74722609,24.8269019 L5.62962224,25.213892 L5.47748497,25.8092613 L3.5605554,25.8092613 L4.10824957,20.0341786 C4.68637118,19.4685777 6.29902622,17.6229327 5.78175951,14.8246968 C5.62962224,13.9911797 5.93389677,13.0683572 6.66415566,12.353914 C7.54655181,11.4906284 8.7940774,11.0441014 9.91989318,11.2227122 C10.7718619,11.3417861 17.0703447,10.5380375 18.1048782,9.40683572 C19.0177018,8.4244763 19.5653959,7.44211687 19.9609528,6.63836825 C20.2043725,6.19184123 20.3869372,5.83461963 20.6303568,5.53693495 L20.8737764,5.20948181 L20.6303568,4.8522602 C20.5695019,4.7629548 20.508647,4.64388093 20.4173646,4.52480706 C20.3869372,4.46527012 20.2652274,4.25689085 20.4173646,3.81036384 C20.6912117,2.97684675 21.6040353,2.08379272 22.2125844,1.57772878 C22.1821569,1.87541345 22.1517295,2.23263506 22.0908746,2.58985667 L21.9691648,3.33406836 L22.7298511,3.27453142 C23.0645531,3.24476295 24.3729336,3.30429989 24.4642159,3.86990077 C24.6163532,4.82249173 25.6813141,5.14994487 26.3811455,5.35832415 C26.4724279,5.38809261 26.5637102,5.41786108 26.6549926,5.44762955 C26.5332828,6.28114664 26.1377259,6.81697905 25.6204592,7.08489526 Z" id="Shape"></path>
        </g>
    </g>
</svg>